<svg width="25" height="23" viewBox="0 0 25 23" fill="none" xmlns="http://www.w3.org/2000/svg">
<path d="M21.4844 2.51562H3.51562C3.0835 2.51562 2.73438 2.83682 2.73438 3.23438V19.7656C2.73438 20.1632 3.0835 20.4844 3.51562 20.4844H21.4844C21.9165 20.4844 22.2656 20.1632 22.2656 19.7656V3.23438C22.2656 2.83682 21.9165 2.51562 21.4844 2.51562ZM19.2285 7.76025H17.6685C16.4453 7.76025 16.2085 8.29482 16.2085 9.08096V10.8127H19.1284L18.7476 13.5237H16.2085V20.4844H13.1641V13.526H10.6177V10.8127H13.1641V8.81367C13.1641 6.49346 14.7046 5.22891 16.9556 5.22891C18.0347 5.22891 18.96 5.30303 19.231 5.33672V7.76025H19.2285Z" fill="white"/>
</svg>
