<svg width="25" height="23" viewBox="0 0 25 23" fill="none" xmlns="http://www.w3.org/2000/svg">
<path d="M12.0133 1.71387C6.20626 1.71162 1.50284 6.2083 1.50284 11.7584C1.50284 16.1473 4.44512 19.878 8.54271 21.2481C9.09453 21.3807 9.01 21.0056 9.01 20.7495V19.0088C5.82351 19.3659 5.69436 17.3489 5.48067 17.012C5.0486 16.3067 4.02714 16.1271 4.33241 15.7901C5.058 15.433 5.79768 15.88 6.65476 17.0906C7.27469 17.9688 8.484 17.8206 9.09688 17.6746C9.23073 17.1468 9.51721 16.6751 9.9117 16.309C6.61015 15.743 5.23411 13.8158 5.23411 11.5248C5.23411 10.413 5.61687 9.39102 6.36829 8.5667C5.88926 7.20781 6.4129 6.04434 6.48335 5.87139C7.84764 5.75459 9.26595 6.80576 9.37632 6.88887C10.1512 6.68897 11.0365 6.5834 12.0274 6.5834C13.0231 6.5834 13.9107 6.69346 14.6926 6.89561C14.958 6.70244 16.2729 5.79951 17.541 5.90957C17.6091 6.08252 18.121 7.21904 17.6701 8.55996C18.4309 9.38652 18.8184 10.4175 18.8184 11.5315C18.8184 13.8271 17.433 15.7564 14.122 16.3135C14.4056 16.5802 14.6308 16.8984 14.7844 17.2493C14.938 17.6003 15.017 17.977 15.0167 18.3574V20.8843C15.0355 21.0864 15.0167 21.2863 15.3689 21.2863C19.5275 19.9454 22.5215 16.1877 22.5215 11.7606C22.5215 6.2083 17.8157 1.71387 12.0133 1.71387Z" fill="white"/>
</svg>
