<svg width="25" height="23" viewBox="0 0 25 23" fill="none" xmlns="http://www.w3.org/2000/svg">
<path d="M12.4993 6.23143C9.33244 6.23143 6.77664 8.58277 6.77664 11.4963C6.77664 14.4098 9.33244 16.7611 12.4993 16.7611C15.6661 16.7611 18.2219 14.4098 18.2219 11.4963C18.2219 8.58277 15.6661 6.23143 12.4993 6.23143ZM12.4993 14.918C10.4513 14.918 8.77998 13.3804 8.77998 11.4963C8.77998 9.61212 10.4513 8.07451 12.4993 8.07451C14.5473 8.07451 16.2186 9.61212 16.2186 11.4963C16.2186 13.3804 14.5473 14.918 12.4993 14.918ZM18.4563 4.78879C17.7169 4.78879 17.1198 5.33812 17.1198 6.01837C17.1198 6.69862 17.7169 7.24795 18.4563 7.24795C19.1957 7.24795 19.7928 6.70118 19.7928 6.01837C19.793 5.85684 19.7586 5.69686 19.6915 5.54759C19.6244 5.39832 19.526 5.26269 19.4019 5.14848C19.2777 5.03426 19.1303 4.9437 18.968 4.88198C18.8058 4.82026 18.6319 4.78859 18.4563 4.78879ZM23.6544 11.4963C23.6544 10.0793 23.6684 8.67518 23.5819 7.26078C23.4954 5.61792 23.088 4.15989 21.7822 2.95855C20.4736 1.75464 18.8916 1.38243 17.1059 1.30286C15.5657 1.22328 14.0395 1.23612 12.5021 1.23612C10.9619 1.23612 9.43568 1.22328 7.89829 1.30286C6.11257 1.38243 4.52775 1.75721 3.22195 2.95855C1.91335 4.16245 1.50878 5.61792 1.42228 7.26078C1.33579 8.67774 1.34974 10.0819 1.34974 11.4963C1.34974 12.9107 1.33579 14.3174 1.42228 15.7318C1.50878 17.3746 1.91614 18.8327 3.22195 20.034C4.53054 21.2379 6.11257 21.6101 7.89829 21.6897C9.43847 21.7693 10.9647 21.7564 12.5021 21.7564C14.0423 21.7564 15.5685 21.7693 17.1059 21.6897C18.8916 21.6101 20.4764 21.2353 21.7822 20.034C23.0908 18.8301 23.4954 17.3746 23.5819 15.7318C23.6712 14.3174 23.6544 12.9132 23.6544 11.4963ZM21.1991 17.5492C20.9954 18.0164 20.7499 18.3655 20.3564 18.7248C19.963 19.0868 19.5863 19.3127 19.0785 19.5001C17.6109 20.0366 14.126 19.9159 12.4993 19.9159C10.8726 19.9159 7.38489 20.0366 5.91726 19.5026C5.40945 19.3152 5.02998 19.0894 4.63936 18.7274C4.24594 18.3655 4.00041 18.0189 3.79672 17.5517C3.21637 16.199 3.34751 12.9928 3.34751 11.4963C3.34751 9.99973 3.21637 6.79103 3.79672 5.4408C4.00041 4.97362 4.24594 4.62451 4.63936 4.26513C5.03277 3.90576 5.40945 3.6773 5.91726 3.48991C7.38489 2.95598 10.8726 3.07663 12.4993 3.07663C14.126 3.07663 17.6137 2.95598 19.0813 3.48991C19.5891 3.6773 19.9686 3.90319 20.3592 4.26513C20.7526 4.62708 20.9982 4.97362 21.2019 5.4408C21.7822 6.79103 21.6511 9.99973 21.6511 11.4963C21.6511 12.9928 21.7822 16.1989 21.1991 17.5492Z" fill="white"/>
</svg>
