<svg width="23" height="23" viewBox="0 0 23 23" fill="none" xmlns="http://www.w3.org/2000/svg">
<path d="M19.7656 2.51562H3.23438C2.83682 2.51562 2.51562 2.83682 2.51562 3.23438V19.7656C2.51562 20.1632 2.83682 20.4844 3.23438 20.4844H19.7656C20.1632 20.4844 20.4844 20.1632 20.4844 19.7656V3.23438C20.4844 2.83682 20.1632 2.51562 19.7656 2.51562ZM7.84561 17.8272H5.17949V9.25166H7.84561V17.8272ZM6.51367 8.0792C6.20804 8.0792 5.90927 7.98857 5.65514 7.81877C5.40102 7.64897 5.20295 7.40762 5.08599 7.12525C4.96903 6.84288 4.93843 6.53217 4.99805 6.23241C5.05768 5.93265 5.20486 5.6573 5.42097 5.44119C5.63709 5.22507 5.91244 5.07789 6.2122 5.01827C6.51196 4.95864 6.82267 4.98924 7.10504 5.1062C7.38741 5.22317 7.62875 5.42123 7.79855 5.67536C7.96835 5.92948 8.05898 6.22825 8.05898 6.53389C8.05674 7.3874 7.36494 8.0792 6.51367 8.0792ZM17.8272 17.8272H15.1634V13.6562C15.1634 12.6612 15.1454 11.3832 13.7775 11.3832C12.3917 11.3832 12.1783 12.4658 12.1783 13.5844V17.8272H9.5167V9.25166H12.0728V10.4241H12.1087C12.4636 9.75029 13.3328 9.03828 14.6311 9.03828C17.3309 9.03828 17.8272 10.8149 17.8272 13.1239V17.8272Z" fill="white"/>
</svg>
