<svg width="35" height="34" viewBox="0 0 35 34" fill="none" xmlns="http://www.w3.org/2000/svg">
<g clip-path="url(#clip0_41_1800)">
<path d="M31.4068 25.3501H28.6607C28.4732 25.3501 28.2974 25.4297 28.1803 25.5701C27.9068 25.8927 27.6138 26.2038 27.3053 26.4998C26.0431 27.7271 24.5481 28.7052 22.9029 29.38C21.1984 30.0793 19.3665 30.4381 17.5162 30.4349C15.6451 30.4349 13.8326 30.0782 12.1295 29.38C10.4843 28.7052 8.98926 27.7271 7.72713 26.4998C6.46273 25.2767 5.45454 23.8269 4.75838 22.2309C4.03572 20.5764 3.67244 18.8195 3.67244 17.0018C3.67244 15.1842 4.03963 13.4273 4.75838 11.7728C5.45369 10.1753 6.45369 8.7371 7.72713 7.50385C9.00056 6.27059 10.481 5.29916 12.1295 4.62371C13.8326 3.9255 15.6451 3.5688 17.5162 3.5688C19.3873 3.5688 21.1998 3.9217 22.9029 4.62371C24.5513 5.29916 26.0318 6.27059 27.3053 7.50385C27.6138 7.80362 27.9029 8.11478 28.1803 8.43353C28.2974 8.57394 28.4771 8.65362 28.6607 8.65362H31.4068C31.6529 8.65362 31.8053 8.388 31.6685 8.18688C28.6724 3.66367 23.4303 0.669693 17.4732 0.684872C8.11384 0.70764 0.609939 8.08822 0.703689 17.1688C0.797439 26.1052 8.28963 33.3188 17.5162 33.3188C23.4576 33.3188 28.6763 30.3286 31.6685 25.8168C31.8013 25.6157 31.6529 25.3501 31.4068 25.3501ZM34.8795 16.7628L29.3365 12.5128C29.1295 12.3534 28.8287 12.4976 28.8287 12.7518V15.6358H16.5631C16.3912 15.6358 16.2506 15.7724 16.2506 15.9393V18.0643C16.2506 18.2313 16.3912 18.3679 16.5631 18.3679H28.8287V21.2518C28.8287 21.5061 29.1334 21.6503 29.3365 21.4909L34.8795 17.2409C34.9168 17.2125 34.947 17.1762 34.9678 17.1348C34.9886 17.0934 34.9994 17.0479 34.9994 17.0018C34.9994 16.9558 34.9886 16.9103 34.9678 16.8689C34.947 16.8275 34.9168 16.7912 34.8795 16.7628Z" fill="#1D275F"/>
</g>
<defs>
<clipPath id="clip0_41_1800">
<rect width="35" height="34" fill="white"/>
</clipPath>
</defs>
</svg>
