<svg width="25" height="23" viewBox="0 0 25 23" fill="none" xmlns="http://www.w3.org/2000/svg">
<path d="M24.1067 4.88575C23.2529 5.22459 22.3237 5.46845 21.3667 5.56342C22.3603 5.02035 23.1044 4.16237 23.4593 3.15048C22.527 3.66076 21.5055 4.01858 20.4404 4.20807C19.9952 3.77021 19.4568 3.42139 18.8586 3.18335C18.2605 2.94531 17.6155 2.82315 16.9638 2.82447C14.3271 2.82447 12.2066 4.79077 12.2066 7.20371C12.2066 7.54255 12.2512 7.88139 12.3237 8.2074C8.37564 8.01744 4.85443 6.28217 2.51347 3.62537C2.08692 4.29564 1.8634 5.05883 1.86615 5.83552C1.86615 7.35517 2.70599 8.69512 3.98669 9.48318C3.23195 9.45583 2.4949 9.26498 1.83546 8.92615V8.98005C1.83546 11.1081 3.4705 12.8716 5.64963 13.2772C5.24048 13.3749 4.81957 13.425 4.39684 13.426C4.08713 13.426 3.79416 13.3978 3.4984 13.3593C4.10108 15.0946 5.85611 16.3549 7.94595 16.396C6.3109 17.5743 4.26291 18.2673 2.03914 18.2673C1.64015 18.2673 1.27184 18.2545 0.889587 18.2134C2.99896 19.4584 5.50175 20.1772 8.19707 20.1772C16.9471 20.1772 21.735 13.5082 21.735 7.71967C21.735 7.52972 21.735 7.33976 21.7211 7.14981C22.6474 6.52604 23.4593 5.75338 24.1067 4.88575Z" fill="white"/>
</svg>
