<svg width="23" height="23" viewBox="0 0 23 23" fill="none" xmlns="http://www.w3.org/2000/svg">
<path d="M21.1425 6.65068C21.0279 6.22401 20.8033 5.83491 20.4911 5.52233C20.1789 5.20974 19.7901 4.98463 19.3636 4.86953C17.7936 4.44727 11.5 4.44727 11.5 4.44727C11.5 4.44727 5.20645 4.44727 3.63643 4.86729C3.20971 4.98201 2.8207 5.207 2.50845 5.51964C2.1962 5.83228 1.97171 6.22158 1.85752 6.64844C1.4375 8.2207 1.4375 11.5 1.4375 11.5C1.4375 11.5 1.4375 14.7793 1.85752 16.3493C2.08887 17.2163 2.77168 17.8991 3.63643 18.1305C5.20645 18.5527 11.5 18.5527 11.5 18.5527C11.5 18.5527 17.7936 18.5527 19.3636 18.1305C20.2306 17.8991 20.9111 17.2163 21.1425 16.3493C21.5625 14.7793 21.5625 11.5 21.5625 11.5C21.5625 11.5 21.5625 8.2207 21.1425 6.65068ZM9.50098 14.5098V8.49023L14.7119 11.4775L9.50098 14.5098Z" fill="white"/>
</svg>
